<svg width="182" height="522" viewBox="0 0 182 522" fill="none" xmlns="http://www.w3.org/2000/svg">
<path d="M54.48 70.112C55.544 70.112 56.398 69.818 57.042 69.216C57.686 68.614 58.008 67.886 58.008 67.046C58.008 66.36 57.756 65.744 57.252 65.198C56.706 64.596 55.782 64.134 54.494 63.812C52.828 63.378 52.156 62.846 52.156 61.852C52.156 61.306 52.38 60.858 52.828 60.508C53.276 60.158 53.808 59.99 54.424 59.99C55.628 59.99 56.468 60.578 56.93 61.74L57.91 61.194C57.392 59.808 56.188 58.912 54.452 58.912C53.5 58.912 52.688 59.192 52.016 59.738C51.344 60.284 51.008 60.998 51.008 61.908C51.008 63.434 52.044 64.4 54.284 64.946C55.964 65.352 56.832 66.01 56.832 67.13C56.832 67.69 56.608 68.152 56.146 68.502C55.698 68.852 55.138 69.034 54.48 69.034C53.066 69.034 52.24 68.278 51.68 66.92L50.686 67.438C51.358 69.216 52.618 70.112 54.48 70.112ZM66.505 70V65.38C66.505 63.588 65.469 62.384 63.677 62.384C62.571 62.384 61.717 62.874 61.115 63.868V58.604H60.023V70H61.115V65.744C61.115 65.072 61.325 64.512 61.745 64.064C62.165 63.602 62.697 63.378 63.341 63.378C64.685 63.378 65.413 64.26 65.413 65.646V70H66.505ZM72.1727 70.126C73.2647 70.126 74.1887 69.748 74.9307 69.006C75.6727 68.264 76.0507 67.34 76.0507 66.234C76.0507 65.156 75.6727 64.26 74.9307 63.518C74.1887 62.776 73.2787 62.398 72.2007 62.398C71.0947 62.398 70.1707 62.776 69.4287 63.518C68.6867 64.26 68.3227 65.184 68.3227 66.29C68.3227 67.354 68.6867 68.264 69.4287 69.006C70.1707 69.748 71.0947 70.126 72.1727 70.126ZM72.2007 69.16C71.4027 69.16 70.7307 68.88 70.2127 68.306C69.6947 67.732 69.4427 67.032 69.4427 66.234C69.4427 65.436 69.6947 64.75 70.2127 64.19C70.7307 63.63 71.3747 63.35 72.1727 63.35C72.9707 63.35 73.6287 63.644 74.1467 64.218C74.6647 64.792 74.9307 65.492 74.9307 66.29C74.9307 67.088 74.6647 67.76 74.1467 68.32C73.6287 68.88 72.9847 69.16 72.2007 69.16ZM85.4642 66.248C85.4642 65.226 85.1282 64.33 84.4702 63.56C83.8122 62.79 82.9722 62.398 81.9502 62.398C80.7602 62.398 79.7942 62.986 79.0522 64.148V62.524H77.9742V73.682H79.0662V68.46C79.7662 69.566 80.7322 70.112 81.9502 70.112C82.9722 70.112 83.8122 69.734 84.4702 68.964C85.1282 68.194 85.4642 67.298 85.4642 66.248ZM81.7262 69.146C80.9562 69.146 80.3122 68.866 79.8082 68.292C79.3042 67.718 79.0522 67.032 79.0522 66.234C79.0522 65.464 79.3042 64.806 79.8222 64.232C80.3402 63.658 80.9702 63.364 81.7262 63.364C82.5242 63.364 83.1542 63.644 83.6302 64.218C84.1062 64.778 84.3442 65.464 84.3442 66.276C84.3442 67.102 84.1062 67.788 83.6302 68.334C83.1682 68.88 82.5242 69.146 81.7262 69.146ZM92.0841 67.2H98.0621L99.2521 70H100.47L95.7381 59.038H94.4361L89.7041 70H90.8801L92.0841 67.2ZM92.5181 66.15L95.0661 60.228L97.6141 66.15H92.5181ZM102.856 58.59H101.75V70H102.856V58.59ZM106.424 58.59H105.318V70H106.424V58.59Z" fill="#1A162E"/>
<path d="M56.216 104.112C57.462 104.112 58.526 103.79 59.38 103.132C60.248 102.474 60.85 101.676 61.172 100.738L60.136 100.248C59.506 101.97 58.204 103.02 56.258 103.02C55.012 103.02 53.99 102.586 53.178 101.732C52.366 100.878 51.96 99.786 51.96 98.484C51.96 97.182 52.38 96.118 53.206 95.278C54.046 94.438 55.054 94.018 56.244 94.018C57.294 94.018 58.134 94.284 58.764 94.816C59.408 95.334 59.856 95.992 60.122 96.762L61.158 96.286C60.864 95.362 60.29 94.578 59.436 93.92C58.582 93.262 57.532 92.926 56.272 92.926C54.746 92.926 53.444 93.458 52.366 94.522C51.288 95.572 50.756 96.916 50.756 98.554C50.756 100.178 51.274 101.508 52.324 102.558C53.374 103.594 54.676 104.112 56.216 104.112ZM69.4308 104V99.38C69.4308 97.588 68.3948 96.384 66.6028 96.384C65.4968 96.384 64.6428 96.874 64.0408 97.868V92.604H62.9488V104H64.0408V99.744C64.0408 99.072 64.2508 98.512 64.6708 98.064C65.0908 97.602 65.6228 97.378 66.2668 97.378C67.6108 97.378 68.3388 98.26 68.3388 99.646V104H69.4308ZM71.5285 93.85C71.5285 94.298 71.8925 94.662 72.3405 94.662C72.8025 94.662 73.1665 94.298 73.1665 93.85C73.1665 93.388 72.8025 93.024 72.3405 93.024C71.8925 93.024 71.5285 93.388 71.5285 93.85ZM72.9005 96.524H71.7945V104H72.9005V96.524ZM82.8529 100.248C82.8529 99.226 82.5169 98.33 81.8589 97.56C81.2009 96.79 80.3609 96.398 79.3389 96.398C78.1489 96.398 77.1829 96.986 76.4409 98.148V96.524H75.3629V107.682H76.4549V102.46C77.1549 103.566 78.1209 104.112 79.3389 104.112C80.3609 104.112 81.2009 103.734 81.8589 102.964C82.5169 102.194 82.8529 101.298 82.8529 100.248ZM79.1149 103.146C78.3449 103.146 77.7009 102.866 77.1969 102.292C76.6929 101.718 76.4409 101.032 76.4409 100.234C76.4409 99.464 76.6929 98.806 77.2109 98.232C77.7289 97.658 78.3589 97.364 79.1149 97.364C79.9129 97.364 80.5429 97.644 81.0189 98.218C81.4949 98.778 81.7329 99.464 81.7329 100.276C81.7329 101.102 81.4949 101.788 81.0189 102.334C80.5569 102.88 79.9129 103.146 79.1149 103.146ZM89.7388 101.872C89.7388 101.41 89.5568 100.99 89.2068 100.64C88.8008 100.22 88.1428 99.912 87.2468 99.716C85.8608 99.422 85.4968 99.156 85.4968 98.54C85.4968 98.218 85.6508 97.952 85.9448 97.714C86.2388 97.476 86.6028 97.364 87.0088 97.364C87.7788 97.364 88.3668 97.784 88.7588 98.624L89.6548 98.134C89.1508 96.972 88.2688 96.398 87.0088 96.398C86.3368 96.398 85.7348 96.608 85.2028 97.028C84.6708 97.448 84.4048 97.98 84.4048 98.624C84.4048 99.058 84.5448 99.422 84.8108 99.744C85.2168 100.206 85.7348 100.444 86.7568 100.668C88.1148 100.99 88.6328 101.312 88.6328 101.942C88.6328 102.684 87.8908 103.16 87.0368 103.16C86.1548 103.16 85.4828 102.67 85.0208 101.704L84.1248 102.194C84.6988 103.482 85.6788 104.126 87.0508 104.126C87.8208 104.126 88.4648 103.916 88.9688 103.496C89.4868 103.062 89.7388 102.53 89.7388 101.872Z" fill="#1A162E"/>
<path d="M52.674 138V133.716H54.998C56.272 133.716 57.266 133.394 57.98 132.764C58.694 132.12 59.044 131.308 59.044 130.328C59.044 129.404 58.722 128.62 58.064 127.99C57.406 127.36 56.454 127.038 55.194 127.038H51.526V138H52.674ZM52.674 128.116H55.096C56.09 128.116 56.79 128.34 57.224 128.774C57.658 129.208 57.868 129.74 57.868 130.37C57.868 130.986 57.63 131.518 57.154 131.98C56.678 132.428 55.978 132.652 55.04 132.652H52.674V128.116ZM63.8055 138.126C64.8975 138.126 65.8215 137.748 66.5635 137.006C67.3055 136.264 67.6835 135.34 67.6835 134.234C67.6835 133.156 67.3055 132.26 66.5635 131.518C65.8215 130.776 64.9115 130.398 63.8335 130.398C62.7275 130.398 61.8035 130.776 61.0615 131.518C60.3195 132.26 59.9555 133.184 59.9555 134.29C59.9555 135.354 60.3195 136.264 61.0615 137.006C61.8035 137.748 62.7275 138.126 63.8055 138.126ZM63.8335 137.16C63.0355 137.16 62.3635 136.88 61.8455 136.306C61.3275 135.732 61.0755 135.032 61.0755 134.234C61.0755 133.436 61.3275 132.75 61.8455 132.19C62.3635 131.63 63.0075 131.35 63.8055 131.35C64.6035 131.35 65.2615 131.644 65.7795 132.218C66.2975 132.792 66.5635 133.492 66.5635 134.29C66.5635 135.088 66.2975 135.76 65.7795 136.32C65.2615 136.88 64.6175 137.16 63.8335 137.16ZM77.097 134.248C77.097 133.226 76.761 132.33 76.103 131.56C75.445 130.79 74.605 130.398 73.583 130.398C72.393 130.398 71.427 130.986 70.685 132.148V130.524H69.607V141.682H70.699V136.46C71.399 137.566 72.365 138.112 73.583 138.112C74.605 138.112 75.445 137.734 76.103 136.964C76.761 136.194 77.097 135.298 77.097 134.248ZM73.359 137.146C72.589 137.146 71.945 136.866 71.441 136.292C70.937 135.718 70.685 135.032 70.685 134.234C70.685 133.464 70.937 132.806 71.455 132.232C71.973 131.658 72.603 131.364 73.359 131.364C74.157 131.364 74.787 131.644 75.263 132.218C75.739 132.778 75.977 133.464 75.977 134.276C75.977 135.102 75.739 135.788 75.263 136.334C74.801 136.88 74.157 137.146 73.359 137.146ZM79.6009 134.22C79.6009 133.422 79.8529 132.75 80.3569 132.204C80.8749 131.644 81.5189 131.364 82.3029 131.364C83.5349 131.364 84.3049 132.064 84.6409 133.002L85.5929 132.582C85.1589 131.336 83.9829 130.398 82.3029 130.398C81.2389 130.398 80.3289 130.776 79.5869 131.518C78.8449 132.26 78.4809 133.184 78.4809 134.262C78.4809 135.368 78.8449 136.292 79.5729 137.034C80.3149 137.762 81.2109 138.126 82.2889 138.126C83.9829 138.126 85.1589 137.188 85.6209 135.9L84.6689 135.48C84.2349 136.6 83.4369 137.16 82.3029 137.16C81.5049 137.16 80.8609 136.866 80.3569 136.292C79.8529 135.718 79.6009 135.018 79.6009 134.22ZM90.7255 138.126C91.8175 138.126 92.7415 137.748 93.4835 137.006C94.2255 136.264 94.6035 135.34 94.6035 134.234C94.6035 133.156 94.2255 132.26 93.4835 131.518C92.7415 130.776 91.8315 130.398 90.7535 130.398C89.6475 130.398 88.7235 130.776 87.9815 131.518C87.2395 132.26 86.8755 133.184 86.8755 134.29C86.8755 135.354 87.2395 136.264 87.9815 137.006C88.7235 137.748 89.6475 138.126 90.7255 138.126ZM90.7535 137.16C89.9555 137.16 89.2835 136.88 88.7655 136.306C88.2475 135.732 87.9955 135.032 87.9955 134.234C87.9955 133.436 88.2475 132.75 88.7655 132.19C89.2835 131.63 89.9275 131.35 90.7255 131.35C91.5235 131.35 92.1815 131.644 92.6995 132.218C93.2175 132.792 93.4835 133.492 93.4835 134.29C93.4835 135.088 93.2175 135.76 92.6995 136.32C92.1815 136.88 91.5375 137.16 90.7535 137.16ZM96.5269 130.524V138H97.6189V134.346C97.6189 133.576 97.8009 132.932 98.1789 132.386C98.5569 131.84 99.1449 131.56 99.9569 131.56C100.055 131.56 100.195 131.574 100.377 131.588V130.426C100.321 130.412 100.195 130.412 100.013 130.412C99.0609 130.412 98.1229 130.93 97.6049 132.008V130.524H96.5269ZM108.327 138V133.38C108.327 131.588 107.291 130.384 105.499 130.384C104.365 130.384 103.511 130.888 102.923 131.896V130.524H101.845V138H102.937V133.744C102.937 133.072 103.147 132.512 103.567 132.064C103.987 131.602 104.519 131.378 105.163 131.378C106.507 131.378 107.235 132.26 107.235 133.646V138H108.327ZM121.083 136.04L120.985 135.914C121.727 134.948 122.245 133.856 122.539 132.638L121.503 132.386C121.237 133.436 120.831 134.346 120.285 135.116L118.003 132.47L119.011 131.854C120.075 131.196 120.579 130.58 120.579 129.502C120.579 128.788 120.299 128.172 119.725 127.682C119.165 127.178 118.521 126.926 117.793 126.926C117.023 126.926 116.365 127.178 115.791 127.682C115.217 128.172 114.937 128.802 114.937 129.572C114.937 130.202 115.189 130.804 115.707 131.392L116.505 132.316C115.063 133.212 114.111 134.108 114.111 135.41C114.111 136.208 114.405 136.866 114.993 137.356C115.595 137.846 116.337 138.098 117.219 138.098C118.311 138.098 119.333 137.636 120.285 136.712L120.327 136.768L121.391 138H122.777L121.083 136.04ZM116.029 129.572C116.029 129.11 116.197 128.732 116.547 128.41C116.897 128.088 117.317 127.92 117.779 127.92C118.241 127.92 118.633 128.074 118.969 128.396C119.319 128.718 119.487 129.096 119.487 129.558C119.487 130.202 119.165 130.72 118.507 131.112L117.401 131.784L117.275 131.63L116.883 131.196L116.449 130.678C116.267 130.44 116.029 129.964 116.029 129.572ZM117.261 137.09C116.099 137.09 115.259 136.348 115.259 135.284C115.259 134.78 115.469 134.332 115.875 133.94C116.309 133.548 116.561 133.38 117.121 133.044L119.613 135.928C118.857 136.698 118.073 137.09 117.261 137.09ZM129.975 138V133.716H132.299C133.573 133.716 134.567 133.394 135.281 132.764C135.995 132.12 136.345 131.308 136.345 130.328C136.345 129.404 136.023 128.62 135.365 127.99C134.707 127.36 133.755 127.038 132.495 127.038H128.827V138H129.975ZM129.975 128.116H132.397C133.391 128.116 134.091 128.34 134.525 128.774C134.959 129.208 135.169 129.74 135.169 130.37C135.169 130.986 134.931 131.518 134.455 131.98C133.979 132.428 133.279 132.652 132.341 132.652H129.975V128.116ZM138.062 130.524V138H139.154V134.346C139.154 133.576 139.336 132.932 139.714 132.386C140.092 131.84 140.68 131.56 141.492 131.56C141.59 131.56 141.73 131.574 141.912 131.588V130.426C141.856 130.412 141.73 130.412 141.548 130.412C140.596 130.412 139.658 130.93 139.14 132.008V130.524H138.062ZM149.729 134.598C149.743 134.528 149.743 134.402 149.743 134.234C149.743 133.1 149.435 132.19 148.819 131.476C148.203 130.762 147.335 130.398 146.215 130.398C145.193 130.398 144.325 130.776 143.625 131.546C142.925 132.316 142.575 133.212 142.575 134.248C142.575 135.326 142.939 136.25 143.667 137.006C144.395 137.748 145.291 138.126 146.369 138.126C147.713 138.126 148.903 137.426 149.533 136.194L148.721 135.662C148.287 136.558 147.405 137.16 146.355 137.16C145.627 137.16 145.011 136.922 144.507 136.432C144.003 135.942 143.723 135.326 143.681 134.598H149.729ZM143.695 133.674C143.793 133.03 144.073 132.484 144.549 132.036C145.025 131.574 145.585 131.35 146.215 131.35C147.615 131.35 148.483 132.274 148.637 133.674H143.695ZM154.106 138.056C154.428 138.056 154.722 138.014 154.96 137.944V137.034C154.806 137.076 154.582 137.09 154.288 137.09C153.476 137.09 153.07 136.74 153.07 136.04V131.49H154.96V130.524H153.07V128.368H151.992V130.524H150.606V131.49H151.992V136.068C151.992 137.398 152.692 138.056 154.106 138.056ZM162.14 138V137.062H157.464L162.126 131.448V130.524H156.26V131.462H160.824L156.162 137.062V138H162.14ZM170.469 134.598C170.483 134.528 170.483 134.402 170.483 134.234C170.483 133.1 170.175 132.19 169.559 131.476C168.943 130.762 168.075 130.398 166.955 130.398C165.933 130.398 165.065 130.776 164.365 131.546C163.665 132.316 163.315 133.212 163.315 134.248C163.315 135.326 163.679 136.25 164.407 137.006C165.135 137.748 166.031 138.126 167.109 138.126C168.453 138.126 169.643 137.426 170.273 136.194L169.461 135.662C169.027 136.558 168.145 137.16 167.095 137.16C166.367 137.16 165.751 136.922 165.247 136.432C164.743 135.942 164.463 135.326 164.421 134.598H170.469ZM164.435 133.674C164.533 133.03 164.813 132.484 165.289 132.036C165.765 131.574 166.325 131.35 166.955 131.35C168.355 131.35 169.223 132.274 169.377 133.674H164.435ZM173.471 126.59H172.365V138H173.471V126.59ZM180.889 135.872C180.889 135.41 180.707 134.99 180.357 134.64C179.951 134.22 179.293 133.912 178.397 133.716C177.011 133.422 176.647 133.156 176.647 132.54C176.647 132.218 176.801 131.952 177.095 131.714C177.389 131.476 177.753 131.364 178.159 131.364C178.929 131.364 179.517 131.784 179.909 132.624L180.805 132.134C180.301 130.972 179.419 130.398 178.159 130.398C177.487 130.398 176.885 130.608 176.353 131.028C175.821 131.448 175.555 131.98 175.555 132.624C175.555 133.058 175.695 133.422 175.961 133.744C176.367 134.206 176.885 134.444 177.907 134.668C179.265 134.99 179.783 135.312 179.783 135.942C179.783 136.684 179.041 137.16 178.187 137.16C177.305 137.16 176.633 136.67 176.171 135.704L175.275 136.194C175.849 137.482 176.829 138.126 178.201 138.126C178.971 138.126 179.615 137.916 180.119 137.496C180.637 137.062 180.889 136.53 180.889 135.872Z" fill="#1A162E"/>
<path d="M56.216 172.112C57.462 172.112 58.526 171.79 59.38 171.132C60.248 170.474 60.85 169.676 61.172 168.738L60.136 168.248C59.506 169.97 58.204 171.02 56.258 171.02C55.012 171.02 53.99 170.586 53.178 169.732C52.366 168.878 51.96 167.786 51.96 166.484C51.96 165.182 52.38 164.118 53.206 163.278C54.046 162.438 55.054 162.018 56.244 162.018C57.294 162.018 58.134 162.284 58.764 162.816C59.408 163.334 59.856 163.992 60.122 164.762L61.158 164.286C60.864 163.362 60.29 162.578 59.436 161.92C58.582 161.262 57.532 160.926 56.272 160.926C54.746 160.926 53.444 161.458 52.366 162.522C51.288 163.572 50.756 164.916 50.756 166.554C50.756 168.178 51.274 169.508 52.324 170.558C53.374 171.594 54.676 172.112 56.216 172.112ZM62.9488 164.524V172H64.0408V168.346C64.0408 167.576 64.2228 166.932 64.6008 166.386C64.9788 165.84 65.5668 165.56 66.3788 165.56C66.4768 165.56 66.6168 165.574 66.7988 165.588V164.426C66.7428 164.412 66.6168 164.412 66.4348 164.412C65.4828 164.412 64.5448 164.93 64.0268 166.008V164.524H62.9488ZM70.5254 167.688C69.7414 167.688 69.0554 167.87 68.4534 168.22C67.8654 168.57 67.5714 169.102 67.5714 169.844V169.928C67.5714 170.558 67.7954 171.09 68.2574 171.51C68.7194 171.916 69.3354 172.126 70.0774 172.126C71.1414 172.126 71.9814 171.65 72.5974 170.684H72.6114V172H73.6754V167.17C73.6754 166.708 73.6054 166.302 73.4514 165.938C73.0034 164.916 72.0934 164.398 70.7214 164.398C69.2374 164.398 68.2154 165.042 67.6554 166.33L68.5514 166.834C69.0134 165.854 69.7274 165.364 70.6934 165.364C71.9674 165.364 72.5974 165.966 72.5974 167.184V167.688H70.5254ZM72.5974 168.85C72.5974 169.536 72.3734 170.082 71.9394 170.516C71.5054 170.95 70.9454 171.16 70.2734 171.16C69.3354 171.16 68.6634 170.67 68.6634 169.844C68.7054 168.864 69.6574 168.57 70.5114 168.584H72.5974V168.85ZM76.6205 168.22C76.6205 167.422 76.8725 166.75 77.3765 166.204C77.8945 165.644 78.5385 165.364 79.3225 165.364C80.5545 165.364 81.3245 166.064 81.6605 167.002L82.6125 166.582C82.1785 165.336 81.0025 164.398 79.3225 164.398C78.2585 164.398 77.3485 164.776 76.6065 165.518C75.8645 166.26 75.5005 167.184 75.5005 168.262C75.5005 169.368 75.8645 170.292 76.5925 171.034C77.3345 171.762 78.2305 172.126 79.3085 172.126C81.0025 172.126 82.1785 171.188 82.6405 169.9L81.6885 169.48C81.2545 170.6 80.4565 171.16 79.3225 171.16C78.5245 171.16 77.8805 170.866 77.3765 170.292C76.8725 169.718 76.6205 169.018 76.6205 168.22ZM85.533 172V168.262H85.575L89.299 172H90.825L86.709 167.884L90.643 164.524H89.089L85.533 167.562V160.59H84.441V172H85.533ZM98.1994 168.598C98.2134 168.528 98.2134 168.402 98.2134 168.234C98.2134 167.1 97.9054 166.19 97.2894 165.476C96.6734 164.762 95.8054 164.398 94.6854 164.398C93.6634 164.398 92.7954 164.776 92.0954 165.546C91.3954 166.316 91.0454 167.212 91.0454 168.248C91.0454 169.326 91.4094 170.25 92.1374 171.006C92.8654 171.748 93.7614 172.126 94.8394 172.126C96.1834 172.126 97.3734 171.426 98.0034 170.194L97.1914 169.662C96.7574 170.558 95.8754 171.16 94.8254 171.16C94.0974 171.16 93.4814 170.922 92.9774 170.432C92.4734 169.942 92.1934 169.326 92.1514 168.598H98.1994ZM92.1654 167.674C92.2634 167.03 92.5434 166.484 93.0194 166.036C93.4954 165.574 94.0554 165.35 94.6854 165.35C96.0854 165.35 96.9534 166.274 97.1074 167.674H92.1654ZM100.095 164.524V172H101.187V168.346C101.187 167.576 101.369 166.932 101.747 166.386C102.125 165.84 102.713 165.56 103.525 165.56C103.623 165.56 103.763 165.574 103.945 165.588V164.426C103.889 164.412 103.763 164.412 103.581 164.412C102.629 164.412 101.691 164.93 101.173 166.008V164.524H100.095ZM110.288 169.872C110.288 169.41 110.106 168.99 109.756 168.64C109.35 168.22 108.692 167.912 107.796 167.716C106.41 167.422 106.046 167.156 106.046 166.54C106.046 166.218 106.2 165.952 106.494 165.714C106.788 165.476 107.152 165.364 107.558 165.364C108.328 165.364 108.916 165.784 109.308 166.624L110.204 166.134C109.7 164.972 108.818 164.398 107.558 164.398C106.886 164.398 106.284 164.608 105.752 165.028C105.22 165.448 104.954 165.98 104.954 166.624C104.954 167.058 105.094 167.422 105.36 167.744C105.766 168.206 106.284 168.444 107.306 168.668C108.664 168.99 109.182 169.312 109.182 169.942C109.182 170.684 108.44 171.16 107.586 171.16C106.704 171.16 106.032 170.67 105.57 169.704L104.674 170.194C105.248 171.482 106.228 172.126 107.6 172.126C108.37 172.126 109.014 171.916 109.518 171.496C110.036 171.062 110.288 170.53 110.288 169.872Z" fill="#1A162E"/>
<path d="M54.48 206.112C55.544 206.112 56.398 205.818 57.042 205.216C57.686 204.614 58.008 203.886 58.008 203.046C58.008 202.36 57.756 201.744 57.252 201.198C56.706 200.596 55.782 200.134 54.494 199.812C52.828 199.378 52.156 198.846 52.156 197.852C52.156 197.306 52.38 196.858 52.828 196.508C53.276 196.158 53.808 195.99 54.424 195.99C55.628 195.99 56.468 196.578 56.93 197.74L57.91 197.194C57.392 195.808 56.188 194.912 54.452 194.912C53.5 194.912 52.688 195.192 52.016 195.738C51.344 196.284 51.008 196.998 51.008 197.908C51.008 199.434 52.044 200.4 54.284 200.946C55.964 201.352 56.832 202.01 56.832 203.13C56.832 203.69 56.608 204.152 56.146 204.502C55.698 204.852 55.138 205.034 54.48 205.034C53.066 205.034 52.24 204.278 51.68 202.92L50.686 203.438C51.358 205.216 52.618 206.112 54.48 206.112ZM62.459 201.688C61.675 201.688 60.989 201.87 60.387 202.22C59.799 202.57 59.505 203.102 59.505 203.844V203.928C59.505 204.558 59.729 205.09 60.191 205.51C60.653 205.916 61.269 206.126 62.011 206.126C63.075 206.126 63.915 205.65 64.531 204.684H64.545V206H65.609V201.17C65.609 200.708 65.539 200.302 65.385 199.938C64.937 198.916 64.027 198.398 62.655 198.398C61.171 198.398 60.149 199.042 59.589 200.33L60.485 200.834C60.947 199.854 61.661 199.364 62.627 199.364C63.901 199.364 64.531 199.966 64.531 201.184V201.688H62.459ZM64.531 202.85C64.531 203.536 64.307 204.082 63.873 204.516C63.439 204.95 62.879 205.16 62.207 205.16C61.269 205.16 60.597 204.67 60.597 203.844C60.639 202.864 61.591 202.57 62.445 202.584H64.531V202.85ZM69.086 194.59H67.98V206H69.086V194.59ZM76.5044 203.872C76.5044 203.41 76.3224 202.99 75.9724 202.64C75.5664 202.22 74.9084 201.912 74.0124 201.716C72.6264 201.422 72.2624 201.156 72.2624 200.54C72.2624 200.218 72.4164 199.952 72.7104 199.714C73.0044 199.476 73.3684 199.364 73.7744 199.364C74.5444 199.364 75.1324 199.784 75.5244 200.624L76.4204 200.134C75.9164 198.972 75.0344 198.398 73.7744 198.398C73.1024 198.398 72.5004 198.608 71.9684 199.028C71.4364 199.448 71.1704 199.98 71.1704 200.624C71.1704 201.058 71.3104 201.422 71.5764 201.744C71.9824 202.206 72.5004 202.444 73.5224 202.668C74.8804 202.99 75.3984 203.312 75.3984 203.942C75.3984 204.684 74.6564 205.16 73.8024 205.16C72.9204 205.16 72.2484 204.67 71.7864 203.704L70.8904 204.194C71.4644 205.482 72.4444 206.126 73.8164 206.126C74.5864 206.126 75.2304 205.916 75.7344 205.496C76.2524 205.062 76.5044 204.53 76.5044 203.872ZM80.8887 201.688C80.1047 201.688 79.4187 201.87 78.8167 202.22C78.2287 202.57 77.9347 203.102 77.9347 203.844V203.928C77.9347 204.558 78.1587 205.09 78.6207 205.51C79.0827 205.916 79.6987 206.126 80.4407 206.126C81.5047 206.126 82.3447 205.65 82.9607 204.684H82.9747V206H84.0387V201.17C84.0387 200.708 83.9687 200.302 83.8147 199.938C83.3667 198.916 82.4567 198.398 81.0847 198.398C79.6007 198.398 78.5787 199.042 78.0187 200.33L78.9147 200.834C79.3767 199.854 80.0907 199.364 81.0567 199.364C82.3307 199.364 82.9607 199.966 82.9607 201.184V201.688H80.8887ZM82.9607 202.85C82.9607 203.536 82.7367 204.082 82.3027 204.516C81.8687 204.95 81.3087 205.16 80.6367 205.16C79.6987 205.16 79.0267 204.67 79.0267 203.844C79.0687 202.864 80.0207 202.57 80.8747 202.584H82.9607V202.85ZM96.8019 204.04L96.7039 203.914C97.4459 202.948 97.9639 201.856 98.2579 200.638L97.2219 200.386C96.9559 201.436 96.5499 202.346 96.0039 203.116L93.7219 200.47L94.7299 199.854C95.7939 199.196 96.2979 198.58 96.2979 197.502C96.2979 196.788 96.0179 196.172 95.4439 195.682C94.8839 195.178 94.2399 194.926 93.5119 194.926C92.7419 194.926 92.0839 195.178 91.5099 195.682C90.9359 196.172 90.6559 196.802 90.6559 197.572C90.6559 198.202 90.9079 198.804 91.4259 199.392L92.2239 200.316C90.7819 201.212 89.8299 202.108 89.8299 203.41C89.8299 204.208 90.1239 204.866 90.7119 205.356C91.3139 205.846 92.0559 206.098 92.9379 206.098C94.0299 206.098 95.0519 205.636 96.0039 204.712L96.0459 204.768L97.1099 206H98.4959L96.8019 204.04ZM91.7479 197.572C91.7479 197.11 91.9159 196.732 92.2659 196.41C92.6159 196.088 93.0359 195.92 93.4979 195.92C93.9599 195.92 94.3519 196.074 94.6879 196.396C95.0379 196.718 95.2059 197.096 95.2059 197.558C95.2059 198.202 94.8839 198.72 94.2259 199.112L93.1199 199.784L92.9939 199.63L92.6019 199.196L92.1679 198.678C91.9859 198.44 91.7479 197.964 91.7479 197.572ZM92.9799 205.09C91.8179 205.09 90.9779 204.348 90.9779 203.284C90.9779 202.78 91.1879 202.332 91.5939 201.94C92.0279 201.548 92.2799 201.38 92.8399 201.044L95.3319 203.928C94.5759 204.698 93.7919 205.09 92.9799 205.09ZM104.546 206H107.808C109.446 206 110.818 205.482 111.924 204.46C113.03 203.424 113.59 202.108 113.59 200.498C113.59 198.944 113.044 197.642 111.966 196.606C110.888 195.556 109.502 195.038 107.808 195.038H104.546V206ZM105.694 196.116H107.752C109.166 196.116 110.286 196.536 111.126 197.362C111.98 198.188 112.4 199.252 112.4 200.526C112.4 201.814 111.966 202.864 111.112 203.69C110.258 204.516 109.152 204.922 107.766 204.922H105.694V196.116ZM115.306 195.85C115.306 196.298 115.67 196.662 116.118 196.662C116.58 196.662 116.944 196.298 116.944 195.85C116.944 195.388 116.58 195.024 116.118 195.024C115.67 195.024 115.306 195.388 115.306 195.85ZM116.678 198.524H115.572V206H116.678V198.524ZM126.63 202.248C126.63 201.226 126.294 200.33 125.636 199.56C124.978 198.79 124.138 198.398 123.116 198.398C121.926 198.398 120.96 198.986 120.218 200.148V198.524H119.14V209.682H120.232V204.46C120.932 205.566 121.898 206.112 123.116 206.112C124.138 206.112 124.978 205.734 125.636 204.964C126.294 204.194 126.63 203.298 126.63 202.248ZM122.892 205.146C122.122 205.146 121.478 204.866 120.974 204.292C120.47 203.718 120.218 203.032 120.218 202.234C120.218 201.464 120.47 200.806 120.988 200.232C121.506 199.658 122.136 199.364 122.892 199.364C123.69 199.364 124.32 199.644 124.796 200.218C125.272 200.778 125.51 201.464 125.51 202.276C125.51 203.102 125.272 203.788 124.796 204.334C124.334 204.88 123.69 205.146 122.892 205.146ZM133.516 203.872C133.516 203.41 133.334 202.99 132.984 202.64C132.578 202.22 131.92 201.912 131.024 201.716C129.638 201.422 129.274 201.156 129.274 200.54C129.274 200.218 129.428 199.952 129.722 199.714C130.016 199.476 130.38 199.364 130.786 199.364C131.556 199.364 132.144 199.784 132.536 200.624L133.432 200.134C132.928 198.972 132.046 198.398 130.786 198.398C130.114 198.398 129.512 198.608 128.98 199.028C128.448 199.448 128.182 199.98 128.182 200.624C128.182 201.058 128.322 201.422 128.588 201.744C128.994 202.206 129.512 202.444 130.534 202.668C131.892 202.99 132.41 203.312 132.41 203.942C132.41 204.684 131.668 205.16 130.814 205.16C129.932 205.16 129.26 204.67 128.798 203.704L127.902 204.194C128.476 205.482 129.456 206.126 130.828 206.126C131.598 206.126 132.242 205.916 132.746 205.496C133.264 205.062 133.516 204.53 133.516 203.872Z" fill="#1A162E"/>
<path d="M15 0C11.5297 -4.13833e-08 8.1667 1.20329 5.4841 3.40484C2.8015 5.6064 0.965248 8.67 0.288221 12.0736C-0.388807 15.4773 0.13528 19.0104 1.77118 22.071C3.40708 25.1315 6.05358 27.5302 9.25975 28.8582C12.4659 30.1862 16.0334 30.3615 19.3543 29.3541C22.6752 28.3467 25.544 26.219 27.472 23.3336C29.4001 20.4481 30.2679 16.9834 29.9278 13.5297C29.5876 10.0761 28.0605 6.84729 25.6066 4.39339L15 15V0Z" fill="#7644E1"/>
<path d="M15 0C11.5297 -4.13833e-08 8.1667 1.20329 5.4841 3.40484C2.8015 5.6064 0.965248 8.67 0.288221 12.0736C-0.388807 15.4773 0.13528 19.0104 1.77118 22.071C3.40708 25.1315 6.05358 27.5302 9.25975 28.8582C12.4659 30.1862 16.0334 30.3615 19.3543 29.3541C22.6752 28.3467 25.544 26.219 27.472 23.3336C29.4001 20.4481 30.2679 16.9834 29.9278 13.5297C29.5876 10.0761 28.0605 6.84729 25.6066 4.39339L15 15V0Z" fill="white" fill-opacity="0.7"/>
<path d="M22.9922 34.0429H15.6955L14.9145 19.6883H25.3924L25.2972 21.3343H25.2971C25.2866 21.4603 25.3273 21.5853 25.4097 21.6807C25.4923 21.7762 25.6097 21.8343 25.7353 21.8416C25.8618 21.858 25.9894 21.8192 26.0859 21.7351C26.1823 21.651 26.2384 21.5295 26.2401 21.4014L26.3449 19.6883H26.8497C26.9761 19.6883 27.0972 19.6379 27.1866 19.5481C27.2758 19.4585 27.3259 19.3367 27.3259 19.2099C27.3259 19.083 27.2758 18.9612 27.1866 18.8716C27.0972 18.7818 26.9761 18.7314 26.8497 18.7314H20.6297V16.1571C20.6302 15.8016 20.8094 15.4705 21.1059 15.2768L23.2396 13.8797V13.8795C23.3461 13.8111 23.4203 13.7023 23.4456 13.5778C23.4707 13.4533 23.4444 13.3239 23.373 13.2193C23.2306 12.9975 22.9368 12.9334 22.7157 13.0756L20.5535 14.4729C20.0001 14.8524 19.6716 15.4841 19.6771 16.1571V18.7314H13.4762C13.2133 18.7314 13 18.9455 13 19.2099C13 19.3367 13.0502 19.4585 13.1395 19.5482C13.2289 19.6379 13.35 19.6883 13.4762 19.6883H13.9621L14.7622 34.5406C14.7724 34.7974 14.9827 35.0002 15.2385 35H22.9825C23.1088 35 23.2299 34.9496 23.3192 34.8598C23.4086 34.77 23.4588 34.6484 23.4588 34.5214C23.4588 34.2609 23.2513 34.0481 22.992 34.0429L22.9922 34.0429Z" fill="#1A162E"/>
<path d="M31.4706 28.3011L34.9188 23.3056C35.066 23.0863 35.0085 22.7886 34.7901 22.6406C34.5718 22.4926 34.2755 22.5505 34.1282 22.7698L30.318 28.2724H28.3559C28.3241 28.131 28.3082 27.9865 28.3082 27.8416C28.303 27.2088 28.5479 26.5997 28.9887 26.1478C29.4298 25.6957 30.0311 25.4377 30.6609 25.4302C30.9108 25.4272 31.1593 25.4693 31.3943 25.5545C31.6466 25.6368 31.918 25.5005 32.0039 25.2483C32.0134 25.1817 32.0134 25.114 32.0039 25.0474V24.9805V24.9803C32.0347 23.7974 31.4347 22.6878 30.4304 22.0699C29.4259 21.4517 28.1696 21.4189 27.1346 21.9836C26.0996 22.5485 25.4431 23.6252 25.4124 24.8081C24.834 25.0806 24.3455 25.5138 24.0045 26.0565C23.6635 26.5992 23.4844 27.2287 23.4883 27.8704C23.4912 28.0951 23.5134 28.3194 23.555 28.5402C23.5109 28.629 23.4943 28.7291 23.5073 28.8274L24.4597 34.5693H24.4599C24.4971 34.7997 24.6943 34.9696 24.9267 34.9713H32.547C32.7794 34.9696 32.9766 34.7997 33.0138 34.5693L33.9662 28.8274C33.981 28.7218 33.9609 28.6142 33.9091 28.5212C33.9538 28.2973 33.9793 28.07 33.9853 27.8417C33.9842 27.4909 33.9295 27.1424 33.8234 26.8082C33.7445 26.544 33.4672 26.394 33.2043 26.4733C32.9411 26.5525 32.792 26.8311 32.8709 27.0952C32.9498 27.3364 32.9915 27.588 32.9946 27.8417C33.0117 27.9943 33.018 28.1478 33.0137 28.3012L31.4706 28.3011ZM28.7273 22.5593C29.2723 22.5623 29.7995 22.7544 30.2196 23.1031C30.6399 23.4521 30.9269 23.936 31.0324 24.4732H30.6609C29.953 24.4759 29.2661 24.7149 28.7082 25.1527C28.1563 24.7427 27.4896 24.5182 26.8032 24.5116H26.4316C26.5306 23.9697 26.8135 23.4791 27.2321 23.1231C27.6505 22.7672 28.1789 22.5679 28.7272 22.5592L28.7273 22.5593ZM26.8222 25.4301V25.4303C27.264 25.4298 27.6969 25.556 28.07 25.7939C27.6338 26.3725 27.3964 27.0778 27.3938 27.8035C27.383 27.9469 27.383 28.0907 27.3938 28.2341H24.4409C24.4311 28.1004 24.4311 27.9661 24.4409 27.8322C24.4384 27.2026 24.6829 26.5975 25.1216 26.1477C25.5601 25.6982 26.1576 25.4403 26.7842 25.4303L26.8222 25.4301ZM32.1755 34.0429H25.3172L24.5265 29.258H32.928L32.1755 34.0429Z" fill="#1A162E"/>
<path d="M55.232 22.144C56.528 22.144 57.568 21.792 58.336 21.072C59.104 20.352 59.488 19.504 59.488 18.528C59.488 17.616 59.184 16.864 58.592 16.288C58 15.696 56.928 15.168 55.376 14.704C53.84 14.24 53.056 13.728 53.056 12.784C53.056 11.776 53.936 11.072 55.152 11.072C56.352 11.072 57.2 11.664 57.68 12.832L59.312 11.952C58.72 10.4 57.312 9.296 55.2 9.296C54.032 9.296 53.056 9.648 52.24 10.352C51.44 11.04 51.04 11.888 51.04 12.896C51.04 13.856 51.36 14.624 52 15.184C52.608 15.728 53.584 16.208 54.944 16.64C56.736 17.2 57.456 17.728 57.456 18.64C57.456 19.68 56.544 20.352 55.264 20.352C53.904 20.352 52.816 19.616 52.288 18.272L50.624 19.136C51.328 21.056 53.04 22.144 55.232 22.144ZM69.194 22V16.736C69.194 14.688 68.09 13.28 65.994 13.28C64.906 13.28 64.042 13.728 63.386 14.608V13.456H61.53V22H63.434V17.248C63.434 15.952 64.202 15.088 65.402 15.088C66.666 15.088 67.29 15.936 67.29 17.216V22H69.194ZM76.535 16.208C76.535 16.688 76.263 16.928 75.735 16.928H74.679C73.175 16.928 71.127 17.552 71.127 19.536V19.632C71.127 20.368 71.399 20.976 71.943 21.44C72.487 21.904 73.175 22.144 74.007 22.144C75.159 22.144 75.991 21.712 76.519 20.832V22H78.391V16.56C78.391 15.968 78.295 15.456 78.103 15.024C77.575 13.856 76.503 13.28 74.903 13.28C73.159 13.28 71.943 14 71.271 15.456L72.727 16.288C73.159 15.376 73.879 14.928 74.855 14.928C75.927 14.928 76.535 15.504 76.535 16.208ZM76.519 18.544C76.519 19.824 75.687 20.624 74.391 20.624C73.575 20.624 73.031 20.16 73.031 19.456C73.031 19.088 73.207 18.8 73.543 18.592C73.895 18.384 74.279 18.272 74.679 18.272H76.519V18.544ZM84.7301 22.144C85.7701 22.144 86.6181 21.888 87.2741 21.376C87.9301 20.864 88.3941 20.256 88.6341 19.568L86.9701 18.832C86.5701 19.888 85.8341 20.416 84.7621 20.416C84.0421 20.416 83.4341 20.16 82.9541 19.648C82.4741 19.136 82.2341 18.48 82.2341 17.68C82.2341 16.896 82.4741 16.256 82.9541 15.76C83.4501 15.264 84.0421 15.008 84.7461 15.008C85.8341 15.008 86.5701 15.536 86.9381 16.576L88.5701 15.84C88.0581 14.32 86.6501 13.28 84.7301 13.28C83.4661 13.28 82.4101 13.712 81.5621 14.592C80.7141 15.472 80.2821 16.512 80.2821 17.712C80.2821 18.976 80.7141 20.032 81.5621 20.88C82.4101 21.728 83.4661 22.144 84.7301 22.144ZM90.4675 22H92.3715V17.824H92.4195L95.9875 22H98.4995L94.4355 17.328L98.2915 13.456H95.6995L92.3875 16.816H92.3715V8.976H90.4675V22ZM102.236 22.144C103.196 22.144 103.98 21.904 104.572 21.408C105.164 20.912 105.468 20.272 105.468 19.488C105.468 18.16 104.444 17.232 102.508 16.8C101.404 16.56 100.924 16.272 100.924 15.712C100.924 15.248 101.532 14.88 102.124 14.88C102.94 14.88 103.532 15.264 103.916 16.032L105.388 15.2C104.796 13.92 103.724 13.28 102.188 13.28C101.356 13.28 100.636 13.52 100.012 14.016C99.3875 14.512 99.0835 15.136 99.0835 15.904C99.0835 16.512 99.2915 17.024 99.6915 17.456C100.156 17.952 100.876 18.288 101.82 18.48C102.988 18.72 103.58 19.104 103.58 19.6C103.58 20.176 102.956 20.544 102.236 20.544C101.324 20.544 100.652 20.08 100.188 19.168L98.6995 20C99.3555 21.424 100.539 22.144 102.236 22.144Z" fill="#1A162E"/>
<path d="M54.48 312.112C55.544 312.112 56.398 311.818 57.042 311.216C57.686 310.614 58.008 309.886 58.008 309.046C58.008 308.36 57.756 307.744 57.252 307.198C56.706 306.596 55.782 306.134 54.494 305.812C52.828 305.378 52.156 304.846 52.156 303.852C52.156 303.306 52.38 302.858 52.828 302.508C53.276 302.158 53.808 301.99 54.424 301.99C55.628 301.99 56.468 302.578 56.93 303.74L57.91 303.194C57.392 301.808 56.188 300.912 54.452 300.912C53.5 300.912 52.688 301.192 52.016 301.738C51.344 302.284 51.008 302.998 51.008 303.908C51.008 305.434 52.044 306.4 54.284 306.946C55.964 307.352 56.832 308.01 56.832 309.13C56.832 309.69 56.608 310.152 56.146 310.502C55.698 310.852 55.138 311.034 54.48 311.034C53.066 311.034 52.24 310.278 51.68 308.92L50.686 309.438C51.358 311.216 52.618 312.112 54.48 312.112ZM66.505 312V307.38C66.505 305.588 65.469 304.384 63.677 304.384C62.571 304.384 61.717 304.874 61.115 305.868V300.604H60.023V312H61.115V307.744C61.115 307.072 61.325 306.512 61.745 306.064C62.165 305.602 62.697 305.378 63.341 305.378C64.685 305.378 65.413 306.26 65.413 307.646V312H66.505ZM72.1727 312.126C73.2647 312.126 74.1887 311.748 74.9307 311.006C75.6727 310.264 76.0507 309.34 76.0507 308.234C76.0507 307.156 75.6727 306.26 74.9307 305.518C74.1887 304.776 73.2787 304.398 72.2007 304.398C71.0947 304.398 70.1707 304.776 69.4287 305.518C68.6867 306.26 68.3227 307.184 68.3227 308.29C68.3227 309.354 68.6867 310.264 69.4287 311.006C70.1707 311.748 71.0947 312.126 72.1727 312.126ZM72.2007 311.16C71.4027 311.16 70.7307 310.88 70.2127 310.306C69.6947 309.732 69.4427 309.032 69.4427 308.234C69.4427 307.436 69.6947 306.75 70.2127 306.19C70.7307 305.63 71.3747 305.35 72.1727 305.35C72.9707 305.35 73.6287 305.644 74.1467 306.218C74.6647 306.792 74.9307 307.492 74.9307 308.29C74.9307 309.088 74.6647 309.76 74.1467 310.32C73.6287 310.88 72.9847 311.16 72.2007 311.16ZM85.4642 308.248C85.4642 307.226 85.1282 306.33 84.4702 305.56C83.8122 304.79 82.9722 304.398 81.9502 304.398C80.7602 304.398 79.7942 304.986 79.0522 306.148V304.524H77.9742V315.682H79.0662V310.46C79.7662 311.566 80.7322 312.112 81.9502 312.112C82.9722 312.112 83.8122 311.734 84.4702 310.964C85.1282 310.194 85.4642 309.298 85.4642 308.248ZM81.7262 311.146C80.9562 311.146 80.3122 310.866 79.8082 310.292C79.3042 309.718 79.0522 309.032 79.0522 308.234C79.0522 307.464 79.3042 306.806 79.8222 306.232C80.3402 305.658 80.9702 305.364 81.7262 305.364C82.5242 305.364 83.1542 305.644 83.6302 306.218C84.1062 306.778 84.3442 307.464 84.3442 308.276C84.3442 309.102 84.1062 309.788 83.6302 310.334C83.1682 310.88 82.5242 311.146 81.7262 311.146ZM92.0841 309.2H98.0621L99.2521 312H100.47L95.7381 301.038H94.4361L89.7041 312H90.8801L92.0841 309.2ZM92.5181 308.15L95.0661 302.228L97.6141 308.15H92.5181ZM102.856 300.59H101.75V312H102.856V300.59ZM106.424 300.59H105.318V312H106.424V300.59Z" fill="#1A162E"/>
<path d="M51.526 346H55.6C56.72 346 57.644 345.748 58.372 345.244C59.114 344.74 59.478 343.984 59.478 342.99C59.478 342.472 59.296 341.94 58.946 341.394C58.596 340.848 58.05 340.484 57.322 340.302C58.036 339.98 58.554 339.476 58.736 338.972C58.946 338.454 58.988 338.132 58.988 337.796C58.988 336.928 58.652 336.256 57.994 335.766C57.336 335.276 56.496 335.038 55.46 335.038H51.526V346ZM52.66 336.088H55.362C56.762 336.088 57.826 336.676 57.826 337.922C57.826 339.084 57 339.91 55.278 339.91H52.66V336.088ZM52.66 340.932H55.418C56.37 340.932 57.196 341.086 57.826 341.716C58.148 342.024 58.302 342.416 58.302 342.906C58.302 343.62 58.036 344.138 57.49 344.46C56.958 344.782 56.342 344.95 55.628 344.95H52.66V340.932ZM68.1076 342.598C68.1216 342.528 68.1216 342.402 68.1216 342.234C68.1216 341.1 67.8136 340.19 67.1976 339.476C66.5816 338.762 65.7136 338.398 64.5936 338.398C63.5716 338.398 62.7036 338.776 62.0036 339.546C61.3036 340.316 60.9536 341.212 60.9536 342.248C60.9536 343.326 61.3176 344.25 62.0456 345.006C62.7736 345.748 63.6696 346.126 64.7476 346.126C66.0916 346.126 67.2816 345.426 67.9116 344.194L67.0996 343.662C66.6656 344.558 65.7836 345.16 64.7336 345.16C64.0056 345.16 63.3896 344.922 62.8856 344.432C62.3816 343.942 62.1016 343.326 62.0596 342.598H68.1076ZM62.0736 341.674C62.1716 341.03 62.4516 340.484 62.9276 340.036C63.4036 339.574 63.9636 339.35 64.5936 339.35C65.9936 339.35 66.8616 340.274 67.0156 341.674H62.0736ZM72.4848 346.056C72.8068 346.056 73.1008 346.014 73.3388 345.944V345.034C73.1848 345.076 72.9608 345.09 72.6668 345.09C71.8548 345.09 71.4488 344.74 71.4488 344.04V339.49H73.3388V338.524H71.4488V336.368H70.3708V338.524H68.9848V339.49H70.3708V344.068C70.3708 345.398 71.0708 346.056 72.4848 346.056ZM77.8031 346.056C78.1251 346.056 78.4191 346.014 78.6571 345.944V345.034C78.5031 345.076 78.2791 345.09 77.9851 345.09C77.1731 345.09 76.7671 344.74 76.7671 344.04V339.49H78.6571V338.524H76.7671V336.368H75.6891V338.524H74.3031V339.49H75.6891V344.068C75.6891 345.398 76.3891 346.056 77.8031 346.056ZM86.9611 342.598C86.9751 342.528 86.9751 342.402 86.9751 342.234C86.9751 341.1 86.6671 340.19 86.0511 339.476C85.4351 338.762 84.5671 338.398 83.4471 338.398C82.4251 338.398 81.5571 338.776 80.8571 339.546C80.1571 340.316 79.8071 341.212 79.8071 342.248C79.8071 343.326 80.1711 344.25 80.8991 345.006C81.6271 345.748 82.5231 346.126 83.6011 346.126C84.9451 346.126 86.1351 345.426 86.7651 344.194L85.9531 343.662C85.5191 344.558 84.6371 345.16 83.5871 345.16C82.8591 345.16 82.2431 344.922 81.7391 344.432C81.2351 343.942 80.9551 343.326 80.9131 342.598H86.9611ZM80.9271 341.674C81.0251 341.03 81.3051 340.484 81.7811 340.036C82.2571 339.574 82.8171 339.35 83.4471 339.35C84.8471 339.35 85.7151 340.274 85.8691 341.674H80.9271ZM88.857 338.524V346H89.949V342.346C89.949 341.576 90.131 340.932 90.509 340.386C90.887 339.84 91.475 339.56 92.287 339.56C92.385 339.56 92.525 339.574 92.707 339.588V338.426C92.651 338.412 92.525 338.412 92.343 338.412C91.391 338.412 90.453 338.93 89.935 340.008V338.524H88.857ZM100.504 335.528C100.826 335.528 101.092 335.556 101.288 335.626V334.702C101.008 334.604 100.728 334.562 100.462 334.562C99.0757 334.562 98.1657 335.458 98.1657 337.138V338.524H96.7797V339.476H98.1657V346H99.2577V339.476H101.218V338.524H99.2577V337.11C99.2577 335.948 99.8317 335.528 100.504 335.528ZM105.806 346.126C106.898 346.126 107.822 345.748 108.564 345.006C109.306 344.264 109.684 343.34 109.684 342.234C109.684 341.156 109.306 340.26 108.564 339.518C107.822 338.776 106.912 338.398 105.834 338.398C104.728 338.398 103.804 338.776 103.062 339.518C102.32 340.26 101.956 341.184 101.956 342.29C101.956 343.354 102.32 344.264 103.062 345.006C103.804 345.748 104.728 346.126 105.806 346.126ZM105.834 345.16C105.036 345.16 104.364 344.88 103.846 344.306C103.328 343.732 103.076 343.032 103.076 342.234C103.076 341.436 103.328 340.75 103.846 340.19C104.364 339.63 105.008 339.35 105.806 339.35C106.604 339.35 107.262 339.644 107.78 340.218C108.298 340.792 108.564 341.492 108.564 342.29C108.564 343.088 108.298 343.76 107.78 344.32C107.262 344.88 106.618 345.16 105.834 345.16ZM111.607 338.524V346H112.699V342.346C112.699 341.576 112.881 340.932 113.259 340.386C113.637 339.84 114.225 339.56 115.037 339.56C115.135 339.56 115.275 339.574 115.457 339.588V338.426C115.401 338.412 115.275 338.412 115.093 338.412C114.141 338.412 113.203 338.93 112.685 340.008V338.524H111.607ZM128.739 335.038H127.423L123.923 340.274L120.465 335.038H119.079L123.321 341.38V346H124.483V341.366L128.739 335.038ZM131.974 346.126C133.066 346.126 133.99 345.748 134.732 345.006C135.474 344.264 135.852 343.34 135.852 342.234C135.852 341.156 135.474 340.26 134.732 339.518C133.99 338.776 133.08 338.398 132.002 338.398C130.896 338.398 129.972 338.776 129.23 339.518C128.488 340.26 128.124 341.184 128.124 342.29C128.124 343.354 128.488 344.264 129.23 345.006C129.972 345.748 130.896 346.126 131.974 346.126ZM132.002 345.16C131.204 345.16 130.532 344.88 130.014 344.306C129.495 343.732 129.244 343.032 129.244 342.234C129.244 341.436 129.495 340.75 130.014 340.19C130.532 339.63 131.176 339.35 131.974 339.35C132.772 339.35 133.43 339.644 133.948 340.218C134.466 340.792 134.732 341.492 134.732 342.29C134.732 343.088 134.466 343.76 133.948 344.32C133.43 344.88 132.786 345.16 132.002 345.16ZM137.691 338.524V343.144C137.691 344.936 138.727 346.14 140.519 346.14C141.653 346.14 142.507 345.636 143.081 344.628V346H144.145V338.524H143.067V342.794C143.067 343.466 142.857 344.026 142.437 344.474C142.017 344.922 141.485 345.146 140.841 345.146C139.497 345.146 138.769 344.264 138.769 342.878V338.524H137.691Z" fill="#1A162E"/>
<path d="M56.216 380.112C57.462 380.112 58.526 379.79 59.38 379.132C60.248 378.474 60.85 377.676 61.172 376.738L60.136 376.248C59.506 377.97 58.204 379.02 56.258 379.02C55.012 379.02 53.99 378.586 53.178 377.732C52.366 376.878 51.96 375.786 51.96 374.484C51.96 373.182 52.38 372.118 53.206 371.278C54.046 370.438 55.054 370.018 56.244 370.018C57.294 370.018 58.134 370.284 58.764 370.816C59.408 371.334 59.856 371.992 60.122 372.762L61.158 372.286C60.864 371.362 60.29 370.578 59.436 369.92C58.582 369.262 57.532 368.926 56.272 368.926C54.746 368.926 53.444 369.458 52.366 370.522C51.288 371.572 50.756 372.916 50.756 374.554C50.756 376.178 51.274 377.508 52.324 378.558C53.374 379.594 54.676 380.112 56.216 380.112ZM69.4308 380V375.38C69.4308 373.588 68.3948 372.384 66.6028 372.384C65.4968 372.384 64.6428 372.874 64.0408 373.868V368.604H62.9488V380H64.0408V375.744C64.0408 375.072 64.2508 374.512 64.6708 374.064C65.0908 373.602 65.6228 373.378 66.2668 373.378C67.6108 373.378 68.3388 374.26 68.3388 375.646V380H69.4308ZM75.0985 380.126C76.1905 380.126 77.1145 379.748 77.8565 379.006C78.5985 378.264 78.9765 377.34 78.9765 376.234C78.9765 375.156 78.5985 374.26 77.8565 373.518C77.1145 372.776 76.2045 372.398 75.1265 372.398C74.0205 372.398 73.0965 372.776 72.3545 373.518C71.6125 374.26 71.2485 375.184 71.2485 376.29C71.2485 377.354 71.6125 378.264 72.3545 379.006C73.0965 379.748 74.0205 380.126 75.0985 380.126ZM75.1265 379.16C74.3285 379.16 73.6565 378.88 73.1385 378.306C72.6205 377.732 72.3685 377.032 72.3685 376.234C72.3685 375.436 72.6205 374.75 73.1385 374.19C73.6565 373.63 74.3005 373.35 75.0985 373.35C75.8965 373.35 76.5545 373.644 77.0725 374.218C77.5905 374.792 77.8565 375.492 77.8565 376.29C77.8565 377.088 77.5905 377.76 77.0725 378.32C76.5545 378.88 75.9105 379.16 75.1265 379.16ZM81.474 376.22C81.474 375.422 81.726 374.75 82.23 374.204C82.748 373.644 83.392 373.364 84.176 373.364C85.408 373.364 86.178 374.064 86.514 375.002L87.466 374.582C87.032 373.336 85.856 372.398 84.176 372.398C83.112 372.398 82.202 372.776 81.46 373.518C80.718 374.26 80.354 375.184 80.354 376.262C80.354 377.368 80.718 378.292 81.446 379.034C82.188 379.762 83.084 380.126 84.162 380.126C85.856 380.126 87.032 379.188 87.494 377.9L86.542 377.48C86.108 378.6 85.31 379.16 84.176 379.16C83.378 379.16 82.734 378.866 82.23 378.292C81.726 377.718 81.474 377.018 81.474 376.22ZM92.5985 380.126C93.6905 380.126 94.6145 379.748 95.3565 379.006C96.0985 378.264 96.4765 377.34 96.4765 376.234C96.4765 375.156 96.0985 374.26 95.3565 373.518C94.6145 372.776 93.7045 372.398 92.6265 372.398C91.5205 372.398 90.5965 372.776 89.8545 373.518C89.1125 374.26 88.7485 375.184 88.7485 376.29C88.7485 377.354 89.1125 378.264 89.8545 379.006C90.5965 379.748 91.5205 380.126 92.5985 380.126ZM92.6265 379.16C91.8285 379.16 91.1565 378.88 90.6385 378.306C90.1205 377.732 89.8685 377.032 89.8685 376.234C89.8685 375.436 90.1205 374.75 90.6385 374.19C91.1565 373.63 91.8005 373.35 92.5985 373.35C93.3965 373.35 94.0545 373.644 94.5725 374.218C95.0905 374.792 95.3565 375.492 95.3565 376.29C95.3565 377.088 95.0905 377.76 94.5725 378.32C94.0545 378.88 93.4105 379.16 92.6265 379.16ZM99.506 368.59H98.4V380H99.506V368.59ZM104.404 375.688C103.62 375.688 102.934 375.87 102.332 376.22C101.744 376.57 101.45 377.102 101.45 377.844V377.928C101.45 378.558 101.674 379.09 102.136 379.51C102.598 379.916 103.214 380.126 103.956 380.126C105.02 380.126 105.86 379.65 106.476 378.684H106.49V380H107.554V375.17C107.554 374.708 107.484 374.302 107.33 373.938C106.882 372.916 105.972 372.398 104.6 372.398C103.116 372.398 102.094 373.042 101.534 374.33L102.43 374.834C102.892 373.854 103.606 373.364 104.572 373.364C105.846 373.364 106.476 373.966 106.476 375.184V375.688H104.404ZM106.476 376.85C106.476 377.536 106.252 378.082 105.818 378.516C105.384 378.95 104.824 379.16 104.152 379.16C103.214 379.16 102.542 378.67 102.542 377.844C102.584 376.864 103.536 376.57 104.39 376.584H106.476V376.85ZM112.475 380.056C112.797 380.056 113.091 380.014 113.329 379.944V379.034C113.175 379.076 112.951 379.09 112.657 379.09C111.845 379.09 111.439 378.74 111.439 378.04V373.49H113.329V372.524H111.439V370.368H110.361V372.524H108.975V373.49H110.361V378.068C110.361 379.398 111.061 380.056 112.475 380.056ZM121.633 376.598C121.647 376.528 121.647 376.402 121.647 376.234C121.647 375.1 121.339 374.19 120.723 373.476C120.107 372.762 119.239 372.398 118.119 372.398C117.097 372.398 116.229 372.776 115.529 373.546C114.829 374.316 114.479 375.212 114.479 376.248C114.479 377.326 114.843 378.25 115.571 379.006C116.299 379.748 117.195 380.126 118.273 380.126C119.617 380.126 120.807 379.426 121.437 378.194L120.625 377.662C120.191 378.558 119.309 379.16 118.259 379.16C117.531 379.16 116.915 378.922 116.411 378.432C115.907 377.942 115.627 377.326 115.585 376.598H121.633ZM115.599 375.674C115.697 375.03 115.977 374.484 116.453 374.036C116.929 373.574 117.489 373.35 118.119 373.35C119.519 373.35 120.387 374.274 120.541 375.674H115.599Z" fill="#1A162E"/>
<path d="M54.48 414.112C55.544 414.112 56.398 413.818 57.042 413.216C57.686 412.614 58.008 411.886 58.008 411.046C58.008 410.36 57.756 409.744 57.252 409.198C56.706 408.596 55.782 408.134 54.494 407.812C52.828 407.378 52.156 406.846 52.156 405.852C52.156 405.306 52.38 404.858 52.828 404.508C53.276 404.158 53.808 403.99 54.424 403.99C55.628 403.99 56.468 404.578 56.93 405.74L57.91 405.194C57.392 403.808 56.188 402.912 54.452 402.912C53.5 402.912 52.688 403.192 52.016 403.738C51.344 404.284 51.008 404.998 51.008 405.908C51.008 407.434 52.044 408.4 54.284 408.946C55.964 409.352 56.832 410.01 56.832 411.13C56.832 411.69 56.608 412.152 56.146 412.502C55.698 412.852 55.138 413.034 54.48 413.034C53.066 413.034 52.24 412.278 51.68 410.92L50.686 411.438C51.358 413.216 52.618 414.112 54.48 414.112ZM59.939 406.524V411.144C59.939 412.936 60.975 414.14 62.767 414.14C63.901 414.14 64.755 413.636 65.329 412.628V414H66.393V406.524H65.315V410.794C65.315 411.466 65.105 412.026 64.685 412.474C64.265 412.922 63.733 413.146 63.089 413.146C61.745 413.146 61.017 412.264 61.017 410.878V406.524H59.939ZM74.7347 414.07C74.7347 415.904 73.6287 416.786 72.0607 416.786C71.2347 416.786 70.5767 416.534 70.1427 416.086C69.7087 415.638 69.4987 415.33 69.2607 414.812L68.3787 415.33C69.0927 416.94 70.3247 417.738 72.0747 417.738C74.3847 417.738 75.8267 416.394 75.8267 414.028V406.524H74.7487V408.092C73.9927 406.958 73.0267 406.398 71.8367 406.398C70.8147 406.398 69.9747 406.776 69.3167 407.546C68.6587 408.316 68.3367 409.198 68.3367 410.22C68.3367 411.27 68.6587 412.18 69.3027 412.922C69.9467 413.664 70.7867 414.028 71.8367 414.028C73.0827 414.028 74.0487 413.468 74.7347 412.334V414.07ZM72.0607 413.076C71.2627 413.076 70.6327 412.81 70.1567 412.264C69.6947 411.718 69.4567 411.046 69.4567 410.248C69.4567 409.422 69.6947 408.736 70.1567 408.19C70.6187 407.644 71.2627 407.364 72.0607 407.364C72.8167 407.364 73.4467 407.644 73.9647 408.218C74.4827 408.792 74.7487 409.45 74.7487 410.206C74.7487 410.99 74.4967 411.662 73.9787 412.236C73.4747 412.796 72.8307 413.076 72.0607 413.076ZM80.7246 409.688C79.9406 409.688 79.2546 409.87 78.6526 410.22C78.0646 410.57 77.7706 411.102 77.7706 411.844V411.928C77.7706 412.558 77.9946 413.09 78.4566 413.51C78.9186 413.916 79.5346 414.126 80.2766 414.126C81.3406 414.126 82.1806 413.65 82.7966 412.684H82.8106V414H83.8746V409.17C83.8746 408.708 83.8046 408.302 83.6506 407.938C83.2026 406.916 82.2926 406.398 80.9206 406.398C79.4366 406.398 78.4146 407.042 77.8546 408.33L78.7506 408.834C79.2126 407.854 79.9266 407.364 80.8926 407.364C82.1666 407.364 82.7966 407.966 82.7966 409.184V409.688H80.7246ZM82.7966 410.85C82.7966 411.536 82.5726 412.082 82.1386 412.516C81.7046 412.95 81.1446 413.16 80.4726 413.16C79.5346 413.16 78.8626 412.67 78.8626 411.844C78.9046 410.864 79.8566 410.57 80.7106 410.584H82.7966V410.85ZM86.2457 406.524V414H87.3377V410.346C87.3377 409.576 87.5197 408.932 87.8977 408.386C88.2757 407.84 88.8637 407.56 89.6757 407.56C89.7737 407.56 89.9137 407.574 90.0957 407.588V406.426C90.0397 406.412 89.9137 406.412 89.7317 406.412C88.7797 406.412 87.8417 406.93 87.3237 408.008V406.524H86.2457ZM101.658 408.05H96.4924V404.116H102.134V403.038H95.3444V414H96.4924V409.114H101.658V408.05ZM103.773 406.524V414H104.865V410.346C104.865 409.576 105.047 408.932 105.425 408.386C105.803 407.84 106.391 407.56 107.203 407.56C107.301 407.56 107.441 407.574 107.623 407.588V406.426C107.567 406.412 107.441 406.412 107.259 406.412C106.307 406.412 105.369 406.93 104.851 408.008V406.524H103.773ZM115.44 410.598C115.454 410.528 115.454 410.402 115.454 410.234C115.454 409.1 115.146 408.19 114.53 407.476C113.914 406.762 113.046 406.398 111.926 406.398C110.904 406.398 110.036 406.776 109.336 407.546C108.636 408.316 108.286 409.212 108.286 410.248C108.286 411.326 108.65 412.25 109.378 413.006C110.106 413.748 111.002 414.126 112.08 414.126C113.424 414.126 114.614 413.426 115.244 412.194L114.432 411.662C113.998 412.558 113.116 413.16 112.066 413.16C111.338 413.16 110.722 412.922 110.218 412.432C109.714 411.942 109.434 411.326 109.392 410.598H115.44ZM109.406 409.674C109.504 409.03 109.784 408.484 110.26 408.036C110.736 407.574 111.296 407.35 111.926 407.35C113.326 407.35 114.194 408.274 114.348 409.674H109.406ZM123.944 410.598C123.958 410.528 123.958 410.402 123.958 410.234C123.958 409.1 123.65 408.19 123.034 407.476C122.418 406.762 121.55 406.398 120.43 406.398C119.408 406.398 118.54 406.776 117.84 407.546C117.14 408.316 116.79 409.212 116.79 410.248C116.79 411.326 117.154 412.25 117.882 413.006C118.61 413.748 119.506 414.126 120.584 414.126C121.928 414.126 123.118 413.426 123.748 412.194L122.936 411.662C122.502 412.558 121.62 413.16 120.57 413.16C119.842 413.16 119.226 412.922 118.722 412.432C118.218 411.942 117.938 411.326 117.896 410.598H123.944ZM117.91 409.674C118.008 409.03 118.288 408.484 118.764 408.036C119.24 407.574 119.8 407.35 120.43 407.35C121.83 407.35 122.698 408.274 122.852 409.674H117.91ZM134.734 414.112C135.98 414.112 137.044 413.79 137.898 413.132C138.766 412.474 139.368 411.676 139.69 410.738L138.654 410.248C138.024 411.97 136.722 413.02 134.776 413.02C133.53 413.02 132.508 412.586 131.696 411.732C130.884 410.878 130.478 409.786 130.478 408.484C130.478 407.182 130.898 406.118 131.724 405.278C132.564 404.438 133.572 404.018 134.762 404.018C135.812 404.018 136.652 404.284 137.282 404.816C137.926 405.334 138.374 405.992 138.64 406.762L139.676 406.286C139.382 405.362 138.808 404.578 137.954 403.92C137.1 403.262 136.05 402.926 134.79 402.926C133.264 402.926 131.962 403.458 130.884 404.522C129.806 405.572 129.274 406.916 129.274 408.554C129.274 410.178 129.792 411.508 130.842 412.558C131.892 413.594 133.194 414.112 134.734 414.112ZM143.902 409.688C143.118 409.688 142.432 409.87 141.83 410.22C141.242 410.57 140.948 411.102 140.948 411.844V411.928C140.948 412.558 141.172 413.09 141.634 413.51C142.096 413.916 142.712 414.126 143.454 414.126C144.518 414.126 145.358 413.65 145.974 412.684H145.988V414H147.052V409.17C147.052 408.708 146.982 408.302 146.828 407.938C146.38 406.916 145.47 406.398 144.098 406.398C142.614 406.398 141.592 407.042 141.032 408.33L141.928 408.834C142.39 407.854 143.104 407.364 144.07 407.364C145.344 407.364 145.974 407.966 145.974 409.184V409.688H143.902ZM145.974 410.85C145.974 411.536 145.75 412.082 145.316 412.516C144.882 412.95 144.322 413.16 143.65 413.16C142.712 413.16 142.04 412.67 142.04 411.844C142.082 410.864 143.034 410.57 143.888 410.584H145.974V410.85ZM155.905 414V409.38C155.905 407.588 154.869 406.384 153.077 406.384C151.943 406.384 151.089 406.888 150.501 407.896V406.524H149.423V414H150.515V409.744C150.515 409.072 150.725 408.512 151.145 408.064C151.565 407.602 152.097 407.378 152.741 407.378C154.085 407.378 154.813 408.26 154.813 409.646V414H155.905ZM157.737 410.248C157.737 411.312 158.059 412.222 158.703 412.978C159.361 413.734 160.201 414.112 161.237 414.112C162.483 414.112 163.463 413.538 164.149 412.404V414H165.213V402.604H164.135V408.092C163.365 406.958 162.399 406.398 161.237 406.398C160.215 406.398 159.375 406.79 158.717 407.56C158.059 408.33 157.737 409.226 157.737 410.248ZM161.461 413.146C160.663 413.146 160.033 412.866 159.557 412.32C159.081 411.76 158.843 411.074 158.843 410.276C158.843 409.45 159.081 408.75 159.557 408.204C160.033 407.644 160.663 407.364 161.461 407.364C162.217 407.364 162.847 407.658 163.365 408.232C163.883 408.806 164.149 409.464 164.149 410.234C164.149 411.032 163.897 411.718 163.379 412.292C162.875 412.866 162.231 413.146 161.461 413.146ZM170.153 413.496L168.221 417.682H169.397L174.521 406.524H173.345L170.755 412.306L168.011 406.524H166.751L170.153 413.496Z" fill="#1A162E"/>
<path d="M61.158 440.244C60.85 439.334 60.276 438.55 59.422 437.906C58.582 437.248 57.532 436.926 56.272 436.926C54.704 436.926 53.388 437.472 52.338 438.55C51.288 439.628 50.756 440.972 50.756 442.554C50.756 444.15 51.26 445.48 52.268 446.53C53.276 447.58 54.592 448.112 56.23 448.112C57.784 448.112 59.03 447.636 59.954 446.684C60.892 445.732 61.354 444.542 61.354 443.114V442.694H55.544V443.758H60.122C60.066 444.766 59.66 445.564 58.904 446.152C58.162 446.74 57.28 447.034 56.258 447.034C54.956 447.034 53.92 446.6 53.122 445.732C52.338 444.85 51.946 443.772 51.946 442.484C51.946 441.182 52.366 440.118 53.192 439.278C54.032 438.438 55.054 438.018 56.244 438.018C57.294 438.018 58.134 438.284 58.764 438.802C59.394 439.32 59.856 439.95 60.122 440.72L61.158 440.244ZM63.1519 440.524V445.144C63.1519 446.936 64.1879 448.14 65.9799 448.14C67.1139 448.14 67.9679 447.636 68.5419 446.628V448H69.6059V440.524H68.5279V444.794C68.5279 445.466 68.3179 446.026 67.8979 446.474C67.4779 446.922 66.9459 447.146 66.3019 447.146C64.9579 447.146 64.2299 446.264 64.2299 444.878V440.524H63.1519ZM78.2556 448V443.702C78.2556 443.044 78.4376 442.498 78.8156 442.064C79.1936 441.616 79.6976 441.392 80.3276 441.392C81.6296 441.392 82.2596 442.302 82.2596 443.646V448H83.3516V443.38C83.3516 441.588 82.3436 440.398 80.5936 440.398C79.4876 440.398 78.6056 440.888 77.9616 441.882C77.4996 440.888 76.7016 440.384 75.5676 440.384C74.5036 440.384 73.7896 440.86 73.1596 441.826V440.524H72.0816V448H73.1736V443.744C73.1736 443.1 73.3556 442.54 73.7336 442.078C74.1116 441.616 74.6156 441.378 75.2456 441.378C76.5336 441.378 77.1776 442.316 77.1776 443.618V448H78.2556Z" fill="#1A162E"/>
<path d="M62.964 482V471.038H61.312L57.252 480.432L53.15 471.038H51.526V482H52.66V472.676L56.706 482H57.742L61.816 472.606H61.83V482H62.964ZM65.4582 471.85C65.4582 472.298 65.8222 472.662 66.2702 472.662C66.7322 472.662 67.0962 472.298 67.0962 471.85C67.0962 471.388 66.7322 471.024 66.2702 471.024C65.8222 471.024 65.4582 471.388 65.4582 471.85ZM66.8302 474.524H65.7242V482H66.8302V474.524ZM75.7745 482V477.38C75.7745 475.588 74.7385 474.384 72.9465 474.384C71.8125 474.384 70.9585 474.888 70.3705 475.896V474.524H69.2925V482H70.3845V477.744C70.3845 477.072 70.5945 476.512 71.0145 476.064C71.4345 475.602 71.9665 475.378 72.6105 475.378C73.9545 475.378 74.6825 476.26 74.6825 477.646V482H75.7745ZM80.6879 482.056C81.0099 482.056 81.3039 482.014 81.5419 481.944V481.034C81.3879 481.076 81.1639 481.09 80.8699 481.09C80.0579 481.09 79.6519 480.74 79.6519 480.04V475.49H81.5419V474.524H79.6519V472.368H78.5739V474.524H77.1879V475.49H78.5739V480.068C78.5739 481.398 79.2739 482.056 80.6879 482.056ZM88.3443 479.872C88.3443 479.41 88.1623 478.99 87.8123 478.64C87.4063 478.22 86.7483 477.912 85.8522 477.716C84.4663 477.422 84.1023 477.156 84.1023 476.54C84.1023 476.218 84.2563 475.952 84.5503 475.714C84.8443 475.476 85.2083 475.364 85.6143 475.364C86.3843 475.364 86.9723 475.784 87.3643 476.624L88.2603 476.134C87.7563 474.972 86.8743 474.398 85.6143 474.398C84.9423 474.398 84.3403 474.608 83.8083 475.028C83.2763 475.448 83.0103 475.98 83.0103 476.624C83.0103 477.058 83.1503 477.422 83.4163 477.744C83.8223 478.206 84.3403 478.444 85.3623 478.668C86.7203 478.99 87.2383 479.312 87.2383 479.942C87.2383 480.684 86.4963 481.16 85.6423 481.16C84.7603 481.16 84.0883 480.67 83.6263 479.704L82.7303 480.194C83.3043 481.482 84.2843 482.126 85.6562 482.126C86.4263 482.126 87.0703 481.916 87.5743 481.496C88.0923 481.062 88.3443 480.53 88.3443 479.872Z" fill="#1A162E"/>
<path d="M61.774 510.484C61.774 508.916 61.242 507.6 60.192 506.536C59.142 505.458 57.84 504.926 56.286 504.926C54.704 504.926 53.388 505.472 52.338 506.55C51.288 507.628 50.756 508.972 50.756 510.554C50.756 512.122 51.274 513.438 52.324 514.516C53.374 515.58 54.69 516.112 56.244 516.112C57.826 516.112 59.142 515.566 60.192 514.488C61.242 513.41 61.774 512.066 61.774 510.484ZM60.584 510.554C60.584 511.8 60.178 512.85 59.366 513.732C58.554 514.6 57.532 515.034 56.286 515.034C55.04 515.034 54.004 514.586 53.178 513.704C52.352 512.822 51.946 511.744 51.946 510.484C51.946 509.238 52.352 508.188 53.164 507.32C53.976 506.438 54.998 506.004 56.244 506.004C57.49 506.004 58.526 506.452 59.352 507.334C60.178 508.216 60.584 509.294 60.584 510.554ZM70.2374 516V511.38C70.2374 509.588 69.2014 508.384 67.4094 508.384C66.2754 508.384 65.4214 508.888 64.8334 509.896V508.524H63.7554V516H64.8474V511.744C64.8474 511.072 65.0574 510.512 65.4774 510.064C65.8974 509.602 66.4294 509.378 67.0734 509.378C68.4174 509.378 69.1454 510.26 69.1454 511.646V516H70.2374ZM76.4231 511.044H72.4191V512.206H76.4231V511.044ZM81.3168 516.056C81.6388 516.056 81.9328 516.014 82.1708 515.944V515.034C82.0168 515.076 81.7928 515.09 81.4988 515.09C80.6868 515.09 80.2808 514.74 80.2808 514.04V509.49H82.1708V508.524H80.2808V506.368H79.2028V508.524H77.8168V509.49H79.2028V514.068C79.2028 515.398 79.9028 516.056 81.3168 516.056ZM90.4992 516V511.38C90.4992 509.588 89.4632 508.384 87.6712 508.384C86.5652 508.384 85.7112 508.874 85.1092 509.868V504.604H84.0172V516H85.1092V511.744C85.1092 511.072 85.3192 510.512 85.7392 510.064C86.1592 509.602 86.6912 509.378 87.3352 509.378C88.6792 509.378 89.4072 510.26 89.4072 511.646V516H90.4992ZM99.4709 512.598C99.4849 512.528 99.4849 512.402 99.4849 512.234C99.4849 511.1 99.1769 510.19 98.5609 509.476C97.9449 508.762 97.0769 508.398 95.9569 508.398C94.9349 508.398 94.0669 508.776 93.3669 509.546C92.6669 510.316 92.3169 511.212 92.3169 512.248C92.3169 513.326 92.6809 514.25 93.4089 515.006C94.1369 515.748 95.0329 516.126 96.1109 516.126C97.4549 516.126 98.6449 515.426 99.2749 514.194L98.4629 513.662C98.0289 514.558 97.1469 515.16 96.0969 515.16C95.3689 515.16 94.7529 514.922 94.2489 514.432C93.7449 513.942 93.4649 513.326 93.4229 512.598H99.4709ZM93.4369 511.674C93.5349 511.03 93.8149 510.484 94.2909 510.036C94.7669 509.574 95.3269 509.35 95.9569 509.35C97.3569 509.35 98.2249 510.274 98.3789 511.674H93.4369ZM105.189 511.044H101.185V512.206H105.189V511.044ZM117.39 508.244C117.082 507.334 116.508 506.55 115.654 505.906C114.814 505.248 113.764 504.926 112.504 504.926C110.936 504.926 109.62 505.472 108.57 506.55C107.52 507.628 106.988 508.972 106.988 510.554C106.988 512.15 107.492 513.48 108.5 514.53C109.508 515.58 110.824 516.112 112.462 516.112C114.016 516.112 115.262 515.636 116.186 514.684C117.124 513.732 117.586 512.542 117.586 511.114V510.694H111.776V511.758H116.354C116.298 512.766 115.892 513.564 115.136 514.152C114.394 514.74 113.512 515.034 112.49 515.034C111.188 515.034 110.152 514.6 109.354 513.732C108.57 512.85 108.178 511.772 108.178 510.484C108.178 509.182 108.598 508.118 109.424 507.278C110.264 506.438 111.286 506.018 112.476 506.018C113.526 506.018 114.366 506.284 114.996 506.802C115.626 507.32 116.088 507.95 116.354 508.72L117.39 508.244ZM122.772 516.126C123.864 516.126 124.788 515.748 125.53 515.006C126.272 514.264 126.65 513.34 126.65 512.234C126.65 511.156 126.272 510.26 125.53 509.518C124.788 508.776 123.878 508.398 122.8 508.398C121.694 508.398 120.77 508.776 120.028 509.518C119.286 510.26 118.922 511.184 118.922 512.29C118.922 513.354 119.286 514.264 120.028 515.006C120.77 515.748 121.694 516.126 122.772 516.126ZM122.8 515.16C122.002 515.16 121.33 514.88 120.812 514.306C120.294 513.732 120.042 513.032 120.042 512.234C120.042 511.436 120.294 510.75 120.812 510.19C121.33 509.63 121.974 509.35 122.772 509.35C123.57 509.35 124.228 509.644 124.746 510.218C125.264 510.792 125.53 511.492 125.53 512.29C125.53 513.088 125.264 513.76 124.746 514.32C124.228 514.88 123.584 515.16 122.8 515.16Z" fill="#1A162E"/>
<path d="M13.8519 242.476C14.587 242.171 15.413 242.171 16.1481 242.476L24.4586 245.918C25.1936 246.222 25.7777 246.806 26.0821 247.541L29.5245 255.852C29.8289 256.587 29.8289 257.413 29.5245 258.148L26.0821 266.459C25.7777 267.194 25.1936 267.778 24.4586 268.082L16.1481 271.524C15.413 271.829 14.587 271.829 13.8519 271.524L5.54145 268.082C4.80636 267.778 4.22234 267.194 3.91786 266.459L0.475538 258.148C0.171056 257.413 0.171056 256.587 0.475538 255.852L3.91786 247.541C4.22234 246.806 4.80636 246.222 5.54145 245.918L13.8519 242.476Z" fill="#F94545"/>
<path d="M13.8519 242.476C14.587 242.171 15.413 242.171 16.1481 242.476L24.4586 245.918C25.1936 246.222 25.7777 246.806 26.0821 247.541L29.5245 255.852C29.8289 256.587 29.8289 257.413 29.5245 258.148L26.0821 266.459C25.7777 267.194 25.1936 267.778 24.4586 268.082L16.1481 271.524C15.413 271.829 14.587 271.829 13.8519 271.524L5.54145 268.082C4.80636 267.778 4.22234 267.194 3.91786 266.459L0.475538 258.148C0.171056 257.413 0.171056 256.587 0.475538 255.852L3.91786 247.541C4.22234 246.806 4.80636 246.222 5.54145 245.918L13.8519 242.476Z" fill="white" fill-opacity="0.3"/>
<path d="M27.9226 277C27.9083 277 27.894 277 27.8797 276.999C27.5985 276.987 27.3339 276.857 27.153 276.642C25.5902 274.784 25.2925 272.599 26.4456 271.446C27.5984 270.293 29.7848 270.59 31.6422 272.153C31.8569 272.333 31.987 272.598 31.9993 272.88C32.0115 273.161 31.9041 273.438 31.7044 273.637L31.6254 273.717L31.5189 273.75C31.2665 273.83 30.9724 273.834 30.6913 273.83C30.4713 273.833 30.1398 273.829 30.0449 273.893C29.5424 274.232 29.1102 274.684 28.7945 275.2C28.7828 275.249 28.8056 275.476 28.8191 275.612C28.8462 275.883 28.874 276.163 28.79 276.405L28.7117 276.629L28.6374 276.704C28.448 276.893 28.1895 277 27.9225 277L27.9226 277ZM27.0936 272.094C26.3114 272.876 26.6456 274.615 27.8544 276.052C27.8748 276.076 27.9008 276.082 27.919 276.083C27.9212 276.083 27.924 276.083 27.9279 276.083C27.937 276.004 27.9187 275.819 27.9071 275.704C27.873 275.362 27.8377 275.008 28.0126 274.722C28.3965 274.095 28.9217 273.545 29.5322 273.134C29.86 272.912 30.3016 272.91 30.6921 272.913C30.8248 272.913 30.9658 272.914 31.0815 272.904C31.0782 272.888 31.0703 272.87 31.0524 272.855C29.615 271.646 27.8763 271.312 27.0936 272.094L27.0936 272.094Z" fill="#1A162E"/>
<path d="M13.7198 261.255C12.6724 261.255 11.4578 260.773 10.358 259.848C10.1434 259.667 10.0132 259.402 10.0009 259.121C9.98879 258.839 10.0962 258.563 10.2959 258.363L10.3703 258.288L10.5958 258.211C10.8375 258.127 11.1175 258.155 11.3873 258.182C11.5231 258.195 11.7507 258.217 11.8204 258.196C12.3162 257.89 12.7682 257.458 13.107 256.956C13.1709 256.861 13.1705 256.53 13.1704 256.31C13.1702 256.027 13.17 255.735 13.2502 255.482L13.2839 255.375L13.3629 255.297C13.5625 255.097 13.84 254.984 14.1207 255.002C14.4018 255.014 14.6665 255.144 14.8473 255.359C16.4101 257.217 16.7079 259.402 15.5547 260.555C15.0844 261.025 14.4417 261.255 13.7198 261.255L13.7198 261.255ZM10.9168 259.073V259.081C10.9176 259.099 10.9238 259.125 10.9479 259.146C12.3856 260.355 14.1245 260.688 14.9067 259.907C15.6889 259.125 15.3547 257.386 14.1459 255.948C14.1306 255.93 14.1125 255.922 14.0969 255.919C14.0867 256.035 14.0871 256.178 14.0871 256.309C14.0876 256.699 14.0879 257.141 13.8668 257.468C13.455 258.079 12.9055 258.604 12.2781 258.988C11.993 259.163 11.6387 259.127 11.2966 259.093C11.1825 259.083 11.0003 259.064 10.9169 259.073L10.9168 259.073ZM15.2307 260.231H15.2352H15.2307Z" fill="#1A162E"/>
<path d="M24.3319 273.13C22.2197 273.13 19.6 271.896 17.3524 269.649C15.7554 268.052 14.6099 266.185 14.1275 264.391C13.6208 262.509 13.8974 260.917 14.9059 259.909C15.914 258.9 17.5057 258.624 19.3883 259.13C21.1821 259.613 23.0495 260.759 24.6463 262.356C26.2433 263.953 27.3888 265.82 27.8712 267.613C28.3779 269.496 28.1013 271.088 27.0928 272.096C26.3931 272.796 25.4306 273.13 24.3315 273.13H24.3319ZM17.6478 259.799C16.7755 259.799 16.0554 260.055 15.5539 260.557C14.7871 261.323 14.5949 262.601 15.0125 264.153C15.4541 265.794 16.5153 267.516 18.0006 269.001C20.9527 271.953 24.8196 273.073 26.445 271.448C27.2118 270.681 27.4039 269.404 26.9863 267.852C26.5447 266.211 25.4835 264.489 23.9983 263.004C22.5131 261.518 20.7913 260.457 19.1502 260.016C18.6131 259.871 18.1091 259.799 17.6476 259.799L17.6478 259.799Z" fill="#1A162E"/>
<path d="M54.072 264.144C55.656 264.144 57.064 263.632 58.008 262.864C58.952 262.096 59.56 261.248 59.864 260.368L58.072 259.552C57.768 260.368 57.24 261.04 56.504 261.552C55.784 262.048 54.984 262.304 54.12 262.304C52.968 262.304 51.96 261.872 51.112 261.024C50.264 260.16 49.848 259.056 49.848 257.712C49.848 256.352 50.28 255.264 51.128 254.416C51.976 253.568 52.984 253.136 54.12 253.136C56.088 253.136 57.4 254.256 58.024 255.872L59.8 255.056C59.528 254.16 58.92 253.312 58.024 252.56C57.128 251.792 55.736 251.296 54.152 251.296C52.408 251.296 50.92 251.92 49.656 253.152C48.392 254.384 47.768 255.92 47.768 257.776C47.768 259.744 48.536 261.424 49.736 262.496C50.936 263.536 52.472 264.144 54.072 264.144ZM66.5038 258.208C66.5038 258.688 66.2318 258.928 65.7038 258.928H64.6478C63.1438 258.928 61.0958 259.552 61.0958 261.536V261.632C61.0958 262.368 61.3678 262.976 61.9118 263.44C62.4557 263.904 63.1438 264.144 63.9758 264.144C65.1278 264.144 65.9598 263.712 66.4878 262.832V264H68.3598V258.56C68.3598 257.968 68.2638 257.456 68.0718 257.024C67.5438 255.856 66.4718 255.28 64.8718 255.28C63.1278 255.28 61.9118 256 61.2398 257.456L62.6957 258.288C63.1278 257.376 63.8478 256.928 64.8238 256.928C65.8958 256.928 66.5038 257.504 66.5038 258.208ZM66.4878 260.544C66.4878 261.824 65.6558 262.624 64.3598 262.624C63.5438 262.624 62.9998 262.16 62.9998 261.456C62.9998 261.088 63.1758 260.8 63.5118 260.592C63.8638 260.384 64.2478 260.272 64.6478 260.272H66.4878V260.544ZM78.4909 264V258.736C78.4909 256.688 77.3869 255.28 75.2909 255.28C74.2029 255.28 73.3389 255.728 72.6829 256.608V255.456H70.8269V264H72.7309V259.248C72.7309 257.952 73.4989 257.088 74.6989 257.088C75.9629 257.088 76.5869 257.936 76.5869 259.216V264H78.4909ZM80.3599 259.712C80.3599 260.896 80.7599 261.936 81.5599 262.816C82.3599 263.696 83.3679 264.128 84.5679 264.128C85.0159 264.128 85.5279 264.016 86.1039 263.776C86.6959 263.536 87.1279 263.168 87.4319 262.672V264H89.2879V250.976H87.3839V256.672C87.0959 256.208 86.6799 255.872 86.1199 255.648C85.5759 255.408 85.0799 255.296 84.6159 255.296C83.3519 255.296 82.3119 255.744 81.5279 256.64C80.7439 257.536 80.3599 258.56 80.3599 259.712ZM84.8559 257.008C85.6079 257.008 86.2159 257.264 86.6959 257.792C87.1759 258.32 87.4159 258.96 87.4159 259.712C87.4159 260.464 87.1759 261.104 86.6959 261.632C86.2319 262.144 85.6079 262.4 84.8559 262.4C84.1039 262.4 83.4799 262.144 82.9999 261.632C82.5359 261.104 82.2959 260.464 82.2959 259.712C82.2959 258.96 82.5359 258.32 82.9999 257.792C83.4799 257.264 84.1039 257.008 84.8559 257.008ZM92.9945 255.456H90.8185L94.6265 263.04L92.2745 268.208H94.3065L100.179 255.456H98.1145L95.6505 261.056L92.9945 255.456Z" fill="#1A162E"/>
</svg>
